<svg height="500" width="600">
<polygon points="
 23.201723209977757,40.0000000000001
 29.268964279970362,30.00000000000013
 23.201723209977757,20.0000000000001
 11.067241069992576,20.000000000000036
 5,30
 11.067241069992576,40.000000000000036
" style="fill:purple;stroke:none;stroke-width:0" />
<polygon points="
 41.403446419955515,50.0000000000002
 35.33620534996294,40.00000000000016
 23.201723209977757,40.0000000000001
 17.134482139985153,50.00000000000007
 23.201723209977757,60.0000000000001
 35.33620534996294,60.00000000000017
" style="fill:purple;stroke:none;stroke-width:0" />
<polygon points="
 53.124834300414136,60.00000000000014
 57.03196359390034,50.00000000000013
 53.124834300414136,40.00000000000014
 45.31057571344172,40.00000000000018
 41.403446419955515,50.0000000000002
 45.31057571344172,60.000000000000185
" style="fill:purple;stroke:none;stroke-width:0" />
<polygon points="
 76.10148040061608,46.17469032421693
 70.44611010686185,44.38816011691829
 67.38289844170646,38.244294954150675
 71.34718386168424,35.09347542460922
 76.66206529657558,35.09059682833845
 78.97953691028005,41.48791567281994
" style="fill:purple;stroke:none;stroke-width:0" />
<polygon points="
 87.35673862035941,30.000000000000266
 83.7158371332306,34.68148014792348
 76.66206529657558,35.09059682833845
 74.89151021296277,30.000000000000206
 76.66206529657558,24.909403171661985
 83.7158371332306,25.318519852077017
" style="fill:purple;stroke:none;stroke-width:0" />
<polygon points="
 76.10148040061608,13.825309675783426
 78.97953691027999,18.51208432718049
 76.66206529657558,24.909403171661985
 71.34718386168424,24.906524575391142
 67.38289844170646,21.75570504584961
 70.44611010686185,15.611839883082002
" style="fill:purple;stroke:none;stroke-width:0" />
<polygon points="
 53.124834300414136,20.000000000000142
 60.77735867331856,18.21019760960116
 67.38289844170646,21.75570504584961
 64.11174504304427,26.85095954079392
 57.71944054585583,30.000000000000185
 51.890525198728824,25.79192220162285
" style="fill:purple;stroke:none;stroke-width:0" />
<polygon points="
 53.124834300414136,40.00000000000014
 51.890525198728824,34.20807779837749
 57.71944054585583,30.000000000000185
 64.11174504304427,33.14904045920641
 67.38289844170646,38.244294954150675
 60.77735867331856,41.7898023903991
" style="fill:purple;stroke:none;stroke-width:0" />
</svg>
