<svg id="googlyy" xmlns="http://www.w3.org/2000/svg" xmlns:xlink="http://www.w3.org/1999/xlink" viewBox="0 0 400 292" shape-rendering="geometricPrecision" text-rendering="geometricPrecision" project-id="f8feb93e4f10444281537f7b116a9194" export-id="cfc621f7740a4b22a57c8ae976226e5c" cached="false"><ellipse id="googlyy-s-ellipse1" rx="72.55922" ry="73.576405" transform="translate(97.908035 150.204366)" fill="none" stroke="#000" stroke-width="10"/><ellipse id="googlyy-u-copy-of-ellipse" rx="72.55922" ry="73.576405" transform="translate(300.735718 149)" fill="none" stroke="#000" stroke-width="10"/><path id="googlyy-s-path1" d="M91.90804,167.4301c0-12.82722,10.1785-23.22573,22.73433-23.22573s22.73433,10.39851,22.73433,23.22573c0,4.54006-1.27509,8.77587-3.47938,12.35405.05605-.38636.08506-.78147.08506-1.18336c0-4.51255-3.65783-8.17069-8.17-8.17069s-8.17,3.65814-8.17,8.17069s3.65783,8.17069,8.17,8.17069c.57152,0,1.12933-.05869,1.66774-.17037-3.65311,2.55809-8.07434,4.05471-12.83774,4.05471-12.55582,0-22.73432-10.39851-22.73432-23.22573l-.00002.00001Z" stroke-width="0"/><path id="googlyy-s-path2" d="M300.73572,167.4301c0-12.82722,10.1785-23.22573,22.73433-23.22573s22.73433,10.39851,22.73433,23.22573c0,4.3895-1.19192,8.49459-3.26316,11.9959.02721-.27138.04115-.54667.04115-.82521c0-4.51255-3.65783-8.17069-8.17-8.17069s-8.17,3.65814-8.17,8.17069s3.65783,8.17069,8.17,8.17069c.48784,0,.96569-.04276,1.43002-.12474-3.64042,2.53025-8.03733,4.00909-12.77233,4.00909-12.55582,0-22.73433-10.39851-22.73433-23.22573h-.00001Z" stroke-width="0"/></svg>
