<?xml version="1.0" standalone="no"?>
<svg width="800" height="800" title="polygons" version="1.1" viewBox="0 0 800 800" xmlns="http://www.w3.org/2000/svg" class="svg-paper"><!----><g><desc>pwidth:800;pheight:800;pcolor:;seed:10};sf:i+i*7;rf:10*sin(i/2);xf:400;yf:400;qt:27;sd:5;rn:-1.2;minrd:30;maxrd:50;mina:80;maxa:354;cv:curveCardinalClosed;rd:false</desc><path stroke="#000000" stroke-width="0.4mm" fill="none" d="M414.64,373.81C396.5,363.68,395.62,363.77,380.08,377.57C364.55,391.36,364.35,392.22,372.26,411.43C380.18,430.64,380.67,432.24,401.68,429.95C422.68,427.67,424.79,425.79,429.54,405.21C434.30,384.62,432.77,383.95,414.64,373.81"/><path stroke="#000000" stroke-width="0.4mm" fill="none" d="M415.70,365.40C391.74,354.52,390.63,354.74,372.48,373.79C354.33,392.85,354.17,393.96,366.2,417.37C378.23,440.77,379.02,442.73,405.29,437.63C431.55,432.53,434.02,429.93,437.84,403.45C441.66,376.96,439.67,376.27,415.70,365.40"/><path stroke="#000000" stroke-width="0.4mm" fill="none" d="M416.32,356.99C386.54,345.69,385.23,346.03,364.75,370.44C344.28,394.85,344.18,396.20,360.49,423.56C376.81,450.92,377.92,453.23,409.26,445.06C440.61,436.88,443.39,433.56,445.98,401.27C448.57,368.98,446.11,368.30,416.32,356.99"/><path stroke="#000000" stroke-width="0.4mm" fill="none" d="M417.78,349.01C382.47,336.70,380.94,337.14,357.69,366.44C334.45,395.74,334.37,397.33,354.39,428.92C374.42,460.50,375.79,463.17,412.31,452.58C448.83,441.99,451.99,438.00,454,400.02C456.01,362.05,453.09,361.33,417.78,349.01"/><path stroke="#000000" stroke-width="0.4mm" fill="none" d="M421.31,341.78C380.99,327.02,379.23,327.50,352.03,360.73C324.83,393.95,324.70,395.77,347.13,432.39C369.56,469.00,371.08,472.09,413.2,460.58C455.32,449.06,459.02,444.54,461.99,400.98C464.97,357.42,461.63,356.54,421.31,341.78"/><path stroke="#000000" stroke-width="0.4mm" fill="none" d="M427.59,335.67C383.04,316.56,381.02,317.00,348.32,352.79C315.62,388.57,315.37,390.63,338.42,433.28C361.46,475.93,362.99,479.51,411.17,469.10C459.36,458.70,463.81,453.83,469.83,404.90C475.85,355.98,472.15,354.78,427.59,335.67"/><path stroke="#000000" stroke-width="0.4mm" fill="none" d="M436.37,331.00C388.58,305.81,386.29,306.12,346.79,342.96C307.29,379.81,306.83,382.07,328.64,431.49C350.45,480.91,351.83,485.02,406.27,477.75C460.72,470.47,466.09,465.46,477.13,411.65C488.16,357.84,484.15,356.18,436.37,331.00"/><path stroke="#000000" stroke-width="0.4mm" fill="none" d="M446.47,327.64C396.36,295.45,393.82,295.57,346.94,332.32C300.07,369.06,299.35,371.50,318.63,427.85C337.92,484.20,339.04,488.84,399.54,486.00C460.03,483.15,466.41,478.15,483.62,420.09C500.83,362.02,496.58,359.82,446.47,327.64"/><path stroke="#000000" stroke-width="0.4mm" fill="none" d="M456.27,324.7C404.12,285.73,401.34,285.67,347.39,322.1C293.44,358.53,292.47,361.13,309.13,424.06C325.80,486.99,326.66,492.15,392.84,493.73C459.02,495.31,466.36,490.35,489.62,428.37C512.87,366.40,508.42,363.67,456.27,324.7"/><path stroke="#000000" stroke-width="0.4mm" fill="none" d="M464.16,320.70C409.24,276.27,406.23,276.08,346.21,313.33C286.19,350.58,285.03,353.36,300.47,422.29C315.90,491.23,316.63,496.85,388.32,501.33C460.01,505.81,468.18,500.74,495.99,434.51C523.79,368.28,519.07,365.13,464.16,320.70"/><path stroke="#000000" stroke-width="0.4mm" fill="none" d="M468.91,314.26C409.53,266.54,406.29,266.34,341.69,306.73C277.10,347.11,275.85,350.11,292.74,424.39C309.63,498.67,310.43,504.74,387.76,509.32C465.09,513.90,473.88,508.40,503.63,436.88C533.39,365.36,528.29,361.98,468.91,314.26"/><path stroke="#000000" stroke-width="0.4mm" fill="none" d="M469.78,304.85C403.88,256.52,400.4,256.47,333.09,302.81C265.78,349.14,264.58,352.42,286.21,431.23C307.83,510.03,308.98,516.49,392.07,517.73C475.15,518.97,484.31,512.67,512.81,434.61C541.31,356.55,535.68,353.17,469.78,304.85"/><path stroke="#000000" stroke-width="0.4mm" fill="none" d="M466.76,293.14C392.75,246.91,389.04,247.13,321.04,301.81C253.04,356.50,252.03,360.08,281.31,442.28C310.58,524.48,312.32,531.27,400.89,526.00C489.47,520.73,498.72,513.28,522.87,427.90C547.02,342.52,540.76,339.37,466.76,293.14"/><path stroke="#000000" stroke-width="0.4mm" fill="none" d="M460.94,280.66C378.29,238.46,374.37,239.03,307.33,303.20C240.30,367.38,239.56,371.27,278.12,455.68C316.67,540.09,319.13,547.12,412.50,533.42C505.86,519.71,514.98,510.98,532.75,418.30C550.51,325.62,543.59,322.86,460.94,280.66"/><path stroke="#000000" stroke-width="0.4mm" fill="none" d="M454.64,268.93C363.87,231.09,359.78,232.02,294.19,305.30C228.61,378.57,228.14,382.74,275.77,468.78C323.40,554.81,326.57,562.04,424.10,539.94C521.62,517.84,530.55,507.87,541.75,408.50C552.95,309.13,545.41,306.77,454.64,268.93"/><path stroke="#000000" stroke-width="0.4mm" fill="none" d="M450.86,258.89C353.13,223.66,348.86,224.85,283.46,305.56C218.06,386.27,217.78,390.69,272.49,479.00C327.20,567.31,330.92,574.77,432.67,546.40C534.42,518.03,543.32,507.05,549.99,401.62C556.66,296.20,548.59,294.11,450.86,258.89"/><path stroke="#000000" stroke-width="0.4mm" fill="none" d="M452.24,250.88C348.97,214.71,344.49,216.00,276.36,301.63C208.23,387.26,207.98,391.92,266.44,484.41C324.90,576.91,328.89,584.74,435.79,553.89C542.70,523.05,551.97,511.40,558,400.29C564.03,289.19,555.51,287.06,452.24,250.88"/><path stroke="#000000" stroke-width="0.4mm" fill="none" d="M460.07,245.25C352.9,203.65,348.14,204.85,273.61,292.38C199.08,379.91,198.65,384.79,256.80,483.96C314.95,583.14,318.86,591.49,432.2,562.85C545.53,534.20,555.68,522.29,565.90,405.84C576.12,289.38,567.24,286.85,460.07,245.25"/><path stroke="#000000" stroke-width="0.4mm" fill="none" d="M473.75,242.40C364.61,191.33,359.55,192.25,275.43,278.52C191.30,364.80,190.50,369.87,244.31,477.70C298.12,585.52,301.62,594.53,422.17,572.58C542.72,550.63,554.17,538.89,573.09,417.82C592.00,296.76,582.89,293.48,473.75,242.40"/><path stroke="#000000" stroke-width="0.4mm" fill="none" d="M490.87,242.31C381.66,179.38,376.31,179.89,280.96,262.33C185.62,344.77,184.34,349.99,230.84,467.14C277.34,584.29,280.19,594.00,407.77,581.83C535.36,569.66,548.34,558.45,578.80,433.95C609.27,309.46,600.08,305.24,490.87,242.31"/><path stroke="#000000" stroke-width="0.4mm" fill="none" d="M508,243.68C399.74,168.88,394.13,168.96,287.89,246.60C181.66,324.24,179.88,329.56,218.26,455.42C256.65,581.28,258.78,591.63,392.57,589.86C526.36,588.08,540.82,577.51,583.14,450.58C625.47,323.65,616.26,318.47,508,243.68"/><path stroke="#000000" stroke-width="0.4mm" fill="none" d="M521.89,243.97C413.83,159.55,407.99,159.29,292.73,233.57C177.47,307.86,175.30,313.29,207.55,446.57C239.81,579.85,241.40,590.74,380.69,597.06C519.98,603.37,535.66,593.26,587.44,463.80C639.22,334.33,629.95,328.38,521.89,243.97"/><path stroke="#000000" stroke-width="0.4mm" fill="none" d="M530.20,240.36C419.64,150.19,413.57,149.79,292.06,224.54C170.55,299.30,168.17,304.9,198.81,444.24C229.44,583.57,230.86,594.94,375.61,604.55C520.36,614.16,536.89,603.99,593.58,470.46C650.26,336.92,640.75,330.53,530.20,240.36"/><path stroke="#000000" stroke-width="0.4mm" fill="none" d="M531.62,231.26C414.76,140.11,408.44,139.83,283.93,220.21C159.42,300.59,157.08,306.46,192.04,450.49C227.00,594.51,228.73,606.28,379.29,613.00C529.84,619.71,546.78,608.77,602.64,468.80C658.49,328.83,648.48,322.41,531.62,231.26"/><path stroke="#000000" stroke-width="0.4mm" fill="none" d="M525.95,217.19C399.35,129.96,392.79,130.06,268.78,220.93C144.77,311.81,142.70,318.03,187.74,465.03C232.78,612.03,235.29,624.12,391.61,621.84C547.93,619.57,564.81,607.20,614.06,458.82C663.32,310.45,652.56,304.42,525.95,217.19"/><path stroke="#000000" stroke-width="0.4mm" fill="none" d="M514.52,200.54C376.39,121.23,369.63,121.88,249.30,226.25C128.97,330.62,127.36,337.22,186.35,485.18C245.34,633.14,248.97,645.40,410.18,629.77C571.39,614.15,587.77,599.94,626.03,442.56C664.29,285.17,652.66,279.85,514.52,200.54"/><path stroke="#000000" stroke-width="0.4mm" fill="none" d="M500.58,184.30C351.19,114.64,344.28,115.91,229.37,234.08C114.46,352.25,113.39,359.20,187.19,506.57C261.00,653.95,265.81,666.28,430.66,636.02C595.51,605.76,611.15,589.68,636.78,424.04C662.42,258.41,649.96,253.95,500.58,184.30"/></g></svg>