<?xml version="1.0" standalone="no"?>
<svg width="400" height="400" title="polygons" version="1.1" viewBox="0 0 400 400" xmlns="http://www.w3.org/2000/svg" class="svg-paper"><!----><g><desc>pwidth:400;pheight:400;pcolor:;seed:4632};sf:i+i*7;rf:10*sin(i/2);xf:200;yf:210;qt:20;sd:5;rn:-1.2;minrd:30;maxrd:50;mina:73;maxa:360;cv:curveCardinalClosed;rd:false</desc><path stroke="#000000" stroke-width="0.4mm" fill="none" d="M217.21,185.43C200.07,173.42,198.66,173.45,181.95,186.04C165.24,198.63,164.82,199.98,171.63,219.77C178.45,239.55,179.60,240.36,200.52,240.00C221.44,239.63,222.57,238.78,228.69,218.77C234.81,198.76,234.35,197.43,217.21,185.43"/><path stroke="#000000" stroke-width="0.4mm" fill="none" d="M219.12,177.16C196.21,163.83,194.43,164.01,174.68,181.67C154.92,199.33,154.54,201.08,165.23,225.33C175.92,249.58,177.47,250.48,203.84,247.81C230.20,245.13,231.54,243.94,237.14,218.03C242.74,192.13,242.02,190.49,219.12,177.16"/><path stroke="#000000" stroke-width="0.4mm" fill="none" d="M220.59,168.86C191.90,154.51,189.76,154.86,167.24,177.71C144.72,200.56,144.39,202.7,159.17,231.18C173.94,259.66,175.87,260.63,207.53,255.38C239.18,250.13,240.69,248.59,245.49,216.87C250.27,185.14,249.28,183.22,220.59,168.86"/><path stroke="#000000" stroke-width="0.4mm" fill="none" d="M222.84,161.07C188.72,145.14,186.22,145.62,160.52,173.16C134.83,200.69,134.51,203.21,152.76,236.16C171.00,269.11,173.31,270.18,210.28,263.01C247.25,255.84,248.99,253.98,253.59,216.60C258.20,179.22,256.97,177.00,222.84,161.07"/><path stroke="#000000" stroke-width="0.4mm" fill="none" d="M227.09,154.23C188.19,135.34,185.32,135.85,155.33,167.00C125.34,198.16,124.94,201.05,145.31,239.20C165.67,277.34,168.29,278.62,210.87,271.04C253.44,263.46,255.46,261.36,261.41,218.53C267.36,175.70,265.98,173.12,227.09,154.23"/><path stroke="#000000" stroke-width="0.4mm" fill="none" d="M233.95,148.79C191.26,125.11,187.99,125.51,152.27,158.79C116.56,192.08,115.93,195.31,136.55,239.57C157.17,283.82,160.05,285.42,208.51,279.48C256.97,273.54,259.38,271.30,268.71,223.38C278.04,175.45,276.65,172.47,233.95,148.79"/><path stroke="#000000" stroke-width="0.4mm" fill="none" d="M243.15,145.02C197.84,114.93,194.16,115.08,151.54,148.88C108.91,182.68,107.92,186.22,126.90,237.20C145.87,288.19,148.93,290.22,203.28,287.93C257.63,285.64,260.51,283.36,275.13,230.96C289.75,178.56,288.47,175.12,243.15,145.02"/><path stroke="#000000" stroke-width="0.4mm" fill="none" d="M253.54,142.70C206.61,105.36,202.56,105.18,152.54,138.28C102.52,171.38,101.10,175.17,117.13,232.97C133.15,290.77,136.31,293.29,196.24,295.92C256.16,298.54,259.54,296.31,280.55,240.13C301.56,183.95,300.48,180.05,253.54,142.70"/><path stroke="#000000" stroke-width="0.4mm" fill="none" d="M263.59,140.77C215.31,96.42,210.91,95.92,153.81,128.13C96.71,160.35,94.87,164.37,107.86,228.63C120.86,292.89,124.12,295.88,189.25,303.38C254.38,310.88,258.23,308.71,285.49,249.08C312.75,189.46,311.87,185.12,263.59,140.77"/><path stroke="#000000" stroke-width="0.4mm" fill="none" d="M271.84,137.59C221.34,87.49,216.59,86.75,153.34,119.3C90.08,151.84,87.92,156.13,99.32,226.35C110.72,296.57,114.13,299.95,184.44,310.81C254.75,321.66,259.02,319.46,291.06,255.95C323.11,192.44,322.34,187.70,271.84,137.59"/><path stroke="#000000" stroke-width="0.4mm" fill="none" d="M277.22,131.66C222.59,77.81,217.47,77.03,149.36,112.35C81.25,147.67,78.94,152.3,91.48,227.99C104.03,303.67,107.71,307.31,183.57,318.77C259.43,330.22,264.03,327.84,298.37,259.24C332.70,190.63,331.86,185.52,277.22,131.66"/><path stroke="#000000" stroke-width="0.4mm" fill="none" d="M279.04,122.39C217.94,67.26,212.41,66.67,141.10,107.75C69.79,148.83,67.52,153.91,84.56,234.42C101.59,314.94,105.71,318.66,187.55,327.34C269.39,336.02,274.21,333.25,307.75,258.10C341.30,182.95,340.15,177.51,279.04,122.39"/><path stroke="#000000" stroke-width="0.4mm" fill="none" d="M277.22,110.43C207.77,56.58,201.84,56.39,129.17,105.80C56.49,155.20,54.48,160.78,79.01,245.16C103.53,329.55,108.22,333.19,196.06,335.94C283.89,338.69,288.80,335.35,318.56,252.67C348.31,169.98,346.66,164.29,277.22,110.43"/><path stroke="#000000" stroke-width="0.4mm" fill="none" d="M272.69,97.43C194.17,46.73,187.87,47.08,115.40,106.08C42.92,165.09,41.30,171.19,75.03,258.35C108.75,345.51,114.05,348.94,207.37,343.80C300.68,338.66,305.57,334.68,329.52,244.34C353.48,154.00,351.20,148.12,272.69,97.43"/><path stroke="#000000" stroke-width="0.4mm" fill="none" d="M267.60,85.13C180.51,37.98,173.88,38.86,102.13,107.12C30.37,175.38,29.16,181.95,71.91,271.29C114.65,360.63,120.53,363.81,218.71,350.76C316.88,337.72,321.72,333.11,339.65,235.71C357.58,138.31,354.70,132.28,267.60,85.13"/><path stroke="#000000" stroke-width="0.4mm" fill="none" d="M264.86,74.75C170.53,29.51,163.58,30.78,91.41,106.52C19.24,182.25,18.30,189.25,68.03,281.30C117.75,373.34,124.12,376.39,227.03,357.55C329.93,338.70,334.80,333.58,348.68,229.89C362.55,126.20,359.19,119.98,264.86,74.75"/><path stroke="#000000" stroke-width="0.4mm" fill="none" d="M267.04,66.93C167.25,20.17,159.95,21.58,84.65,102.03C9.34,182.48,8.42,189.87,61.67,286.34C114.91,382.82,121.65,385.98,229.86,365.15C338.07,344.33,343.15,338.90,356.79,229.55C370.42,120.20,366.82,113.68,267.04,66.93"/><path stroke="#000000" stroke-width="0.4mm" fill="none" d="M275.40,62.11C172.26,9.53,164.54,10.74,82.65,92.59C0.76,174.43,-0.46,182.15,52.07,285.32C104.61,388.49,111.57,392.04,225.93,373.96C340.28,355.88,345.81,350.36,363.95,236.01C382.09,121.67,378.54,114.70,275.40,62.11"/><path stroke="#000000" stroke-width="0.4mm" fill="none" d="M289.30,60.66C185.15,-1.62,176.99,-0.89,85.57,78.92C-5.85,158.73,-7.68,166.72,39.98,278.33C87.63,389.93,94.66,394.14,215.53,383.31C336.40,372.47,342.57,367.08,369.62,248.78C396.67,130.48,393.45,122.95,289.30,60.66"/><path stroke="#000000" stroke-width="0.4mm" fill="none" d="M306.34,62.30C203.32,-11.87,194.75,-11.83,92.39,63.22C-9.98,138.28,-12.60,146.44,27.15,266.99C66.90,387.54,73.86,392.55,200.79,392.00C327.72,391.45,334.63,386.38,373.33,265.49C412.04,144.60,409.35,136.46,306.34,62.30"/></g></svg>