<?xml version="1.0" standalone="no"?>
<svg xmlns:xlink="http://www.w3.org/1999/xlink" id="wave" style="transform:rotate(0deg); transition: 0.3s" viewBox="0 0 1440 490" version="1.1" xmlns="http://www.w3.org/2000/svg"><defs><linearGradient id="sw-gradient-0" x1="0" x2="0" y1="1" y2="0"><stop stop-color="rgba(0, 208, 255, 1)" offset="0%"/><stop stop-color="rgba(57, 70, 213, 1)" offset="100%"/></linearGradient></defs><path style="transform:translate(0, 0px); opacity:1" fill="url(#sw-gradient-0)" d="M0,49L26.7,98C53.3,147,107,245,160,269.5C213.3,294,267,245,320,245C373.3,245,427,294,480,318.5C533.3,343,587,343,640,318.5C693.3,294,747,245,800,253.2C853.3,261,907,327,960,326.7C1013.3,327,1067,261,1120,269.5C1173.3,278,1227,359,1280,359.3C1333.3,359,1387,278,1440,212.3C1493.3,147,1547,98,1600,73.5C1653.3,49,1707,49,1760,81.7C1813.3,114,1867,180,1920,171.5C1973.3,163,2027,82,2080,106.2C2133.3,131,2187,261,2240,269.5C2293.3,278,2347,163,2400,114.3C2453.3,65,2507,82,2560,106.2C2613.3,131,2667,163,2720,155.2C2773.3,147,2827,98,2880,122.5C2933.3,147,2987,245,3040,253.2C3093.3,261,3147,180,3200,122.5C3253.3,65,3307,33,3360,49C3413.3,65,3467,131,3520,179.7C3573.3,229,3627,261,3680,269.5C3733.3,278,3787,261,3813,253.2L3840,245L3840,490L3813.3,490C3786.7,490,3733,490,3680,490C3626.7,490,3573,490,3520,490C3466.7,490,3413,490,3360,490C3306.7,490,3253,490,3200,490C3146.7,490,3093,490,3040,490C2986.7,490,2933,490,2880,490C2826.7,490,2773,490,2720,490C2666.7,490,2613,490,2560,490C2506.7,490,2453,490,2400,490C2346.7,490,2293,490,2240,490C2186.7,490,2133,490,2080,490C2026.7,490,1973,490,1920,490C1866.7,490,1813,490,1760,490C1706.7,490,1653,490,1600,490C1546.7,490,1493,490,1440,490C1386.7,490,1333,490,1280,490C1226.7,490,1173,490,1120,490C1066.7,490,1013,490,960,490C906.7,490,853,490,800,490C746.7,490,693,490,640,490C586.7,490,533,490,480,490C426.7,490,373,490,320,490C266.7,490,213,490,160,490C106.7,490,53,490,27,490L0,490Z"/></svg>